<svg width="1000" height="1000" viewBox="0 0 1000 1000" fill="none" xmlns="http://www.w3.org/2000/svg">
<defs>
  <clipPath id="globe-clip">
    <circle cx="137" cy="224" r="90"/>
  </clipPath>
  <style>
    @keyframes meridianSpin {
      0%   { transform: scaleX(1); }
      25%  { transform: scaleX(0); }
      50%  { transform: scaleX(-1); }
      75%  { transform: scaleX(0); }
      100% { transform: scaleX(1); }
    }
    .globe-m {
      transform-box: fill-box;
      transform-origin: center;
      animation: meridianSpin 6s linear infinite;
      will-change: transform;
    }
    .globe-m1 { animation-delay: -2s; }
    .globe-m2 { animation-delay: -1s; }
    @keyframes globeBounce {
      0%, 100% { transform: translateY(0); }
      50%      { transform: translateY(-8px); }
    }
    #globe {
      animation: globeBounce 2s ease-in-out infinite;
    }
  </style>
</defs>
<path d="M418.781 585.213L542.5 604.5H559.5L668.958 593.028C671.731 592.738 674.207 594.772 674.459 597.548L676.46 619.555C676.486 619.851 676.487 620.149 676.461 620.445L674.047 647.959C674.016 648.319 673.945 648.674 673.837 649.018L666.214 673.318C666.072 673.77 665.867 674.2 665.603 674.595L650.737 696.895C650.254 697.619 649.591 698.205 648.812 698.594L623.5 711.25C623.168 711.416 622.818 711.545 622.457 711.633L594.5 718.5L558.875 723.943C558.625 723.981 558.373 724 558.12 724H530H521.5H495.504C495.169 724 494.835 723.966 494.506 723.899L469.214 718.747C468.417 718.585 467.671 718.23 467.042 717.714L443.65 698.533C443.22 698.18 442.851 697.758 442.56 697.283L425.933 670.205C425.646 669.738 425.438 669.228 425.317 668.694L417.124 632.546C417.041 632.183 417 631.812 417 631.44V605.217C417 604.741 416.932 604.268 416.799 603.812L413.212 591.558C412.183 588.041 415.161 584.649 418.781 585.213Z" fill="#CB6543"/>
<path d="M542.5 604.5L418.781 585.213C415.161 584.649 412.183 588.041 413.212 591.558L416.799 603.812C416.932 604.268 417 604.741 417 605.217V631.44C417 631.812 417.041 632.183 417.124 632.546L425.317 668.694C425.438 669.228 425.646 669.738 425.933 670.205L442.56 697.283C442.851 697.758 443.22 698.18 443.65 698.533L467.042 717.714C467.671 718.23 468.417 718.585 469.214 718.747L494.506 723.899C494.835 723.966 495.169 724 495.504 724H521.5H530M530 724L536.5 656.5L542.5 604.5M542.5 604.5H559.5M536.5 656.5L551.886 649.662C553.505 648.942 554.623 647.419 554.823 645.657L559.5 604.5M559.5 604.5L668.958 593.028C671.731 592.738 674.207 594.772 674.459 597.548L676.46 619.555C676.486 619.851 676.487 620.149 676.461 620.445L674.047 647.959C674.016 648.319 673.945 648.674 673.837 649.018L666.214 673.318C666.072 673.77 665.866 674.2 665.603 674.595L650.737 696.895C650.254 697.619 649.591 698.205 648.812 698.594L623.5 711.25C623.168 711.416 622.818 711.545 622.457 711.633L594.5 718.5L558.875 723.943C558.625 723.981 558.373 724 558.12 724H530" stroke="#572E20" stroke-width="5"/>
<circle cx="549.299" cy="612.5" r="3" fill="#F4E4C8" stroke="#572E20"/>
<path d="M715.973 704.722L741.732 712.117L760.529 732.779C766.407 745.778 768.565 753.62 770.295 768.638L773.394 794.761C773.394 794.761 772.649 819.19 772.339 825.243C772.029 831.296 775.694 853.978 774.352 853.829C774.95 867.49 774.499 875.151 773.142 888.809C773.217 904.956 770.567 913.608 764.751 928.876C756.873 936.74 751.745 940.601 742.107 947.104C752.426 945.671 758.006 944.153 767.386 939.473C773.882 931.842 777.102 927.195 781.157 917.436C785.278 897.456 787.182 886.197 786.952 865.606L785.098 803.504L778.248 741.23C772.266 728.017 770.469 721.987 760.168 713.72C755.643 707.129 749.273 706.095 742.997 704.489C739.313 702.185 722.983 702.753 716.444 705.572L702.084 708.494L715.973 704.722Z" fill="#F4E4C8"/>
<path d="M764.751 928.876C770.567 913.608 773.217 904.956 773.142 888.809L763.89 873.002C756.771 863.785 752.987 862.088 746.316 860.387C737.574 857.352 734.429 856.34 729.499 854.802C719.711 852.658 714.409 852.949 705.013 853.955C692.451 855.218 686.404 856.892 676.754 860.982L679.498 868.415C674.403 878.236 673.382 884.215 675.049 895.777C675.581 907.326 676.153 913.348 677.596 923.382C685.055 937.869 691.367 942.841 706.852 945.407L742.107 947.104C751.745 940.601 756.873 936.74 764.751 928.876Z" fill="#F4E4C8"/>
<path d="M691.917 711.917L676.648 733.902L682.362 785.631L681.256 817.612L677.238 846.99L676.754 860.982C686.404 856.892 692.451 855.218 705.013 853.955C714.409 852.949 719.711 852.658 729.499 854.802C734.429 856.34 737.574 857.352 746.316 860.387C752.987 862.088 756.771 863.785 763.89 873.002L773.142 888.809C774.499 875.151 774.95 867.49 774.352 853.829C775.694 853.978 772.029 831.296 772.339 825.243C772.649 819.19 773.394 794.761 773.394 794.761L770.295 768.638C768.565 753.62 766.407 745.778 760.529 732.779L741.732 712.117L715.973 704.722L702.084 708.494L691.917 711.917Z" fill="#F4E4C8"/>
<path d="M702.084 708.494L716.444 705.572C722.983 702.753 739.313 702.185 742.997 704.489C749.273 706.095 755.643 707.129 760.168 713.72C770.469 721.987 772.266 728.017 778.248 741.23L785.098 803.504L786.952 865.606C787.182 886.197 785.278 897.456 781.157 917.436C777.102 927.195 773.882 931.842 767.386 939.473C758.006 944.153 752.426 945.671 742.107 947.104L706.852 945.407C691.367 942.841 685.055 937.869 677.596 923.382C676.153 913.348 675.581 907.326 675.049 895.777C673.382 884.215 674.403 878.236 679.498 868.415L676.754 860.982L677.238 846.99L681.256 817.612L682.362 785.631L676.648 733.902L691.917 711.917L702.084 708.494L715.973 704.722L741.732 712.117L760.529 732.779C766.407 745.778 768.565 753.62 770.295 768.638L773.394 794.761C773.394 794.761 772.649 819.19 772.339 825.243C772.029 831.296 775.694 853.978 774.352 853.829C774.95 867.49 774.499 875.151 773.142 888.809M773.142 888.809C773.217 904.956 770.567 913.608 764.751 928.876C756.873 936.74 751.745 940.601 742.107 947.104M773.142 888.809L763.89 873.002C756.771 863.785 752.987 862.088 746.316 860.387C737.574 857.352 734.429 856.34 729.499 854.802C719.711 852.658 714.409 852.949 705.013 853.955C692.451 855.218 686.404 856.892 676.754 860.982" stroke="#572E20" stroke-width="5"/>
<path fill-rule="evenodd" clip-rule="evenodd" d="M411.519 596.5L500.019 609.5L527.299 656.276L585.019 736.842L626.868 740.248C644.647 734.575 652.153 730.909 664.254 724.116C670.976 718.839 681.694 725.231 695.966 736.859C703.407 743.24 706.772 748.01 710.948 759.215C714.174 773.019 715.136 780.791 713.619 794.787C711.57 807.792 707.588 813.966 696.447 823.394C685.093 827.228 677.07 830.967 664.711 833.157C652.351 835.044 631.912 846.363 609.783 850.88C589.322 852.916 578.055 851.856 558.402 845.18C543.639 837.563 535.842 832.024 522.995 819.347C506.7 803.306 474.152 781.428 466.299 759.215L445.093 728.5L427.513 701L418.289 656.276L419.13 631.965L411.519 596.5ZM445.093 640.499C443.8 645.744 442.904 648.63 439.402 653.188L427.513 665.663L430.636 671.975L441.967 661.867C449.244 656.243 450.391 650.44 453.2 640.779L445.093 640.499Z" fill="#CB6543"/>
<path d="M439.402 653.188C442.904 648.63 443.8 645.744 445.093 640.499L453.2 640.779C450.391 650.44 449.244 656.243 441.967 661.867L430.636 671.975L427.513 665.663L439.402 653.188Z" fill="#F4E4C8"/>
<path fill-rule="evenodd" clip-rule="evenodd" d="M411.519 596.5L500.019 609.5L527.299 656.276L585.019 736.842L626.868 740.248C644.647 734.575 652.153 730.909 664.254 724.116C670.976 718.839 681.694 725.231 695.966 736.859C703.407 743.24 706.772 748.01 710.948 759.215C714.174 773.019 715.136 780.791 713.619 794.787C711.57 807.792 707.588 813.966 696.447 823.394C685.093 827.228 677.07 830.967 664.711 833.157C652.351 835.044 631.912 846.363 609.783 850.88C589.322 852.916 578.055 851.856 558.402 845.18C543.639 837.563 535.842 832.024 522.995 819.347C506.7 803.306 474.152 781.428 466.299 759.215L445.093 728.5L427.513 701L418.289 656.276L419.13 631.965L411.519 596.5ZM445.093 640.499C443.8 645.744 442.904 648.63 439.402 653.188L427.513 665.663L430.636 671.975L441.967 661.867C449.244 656.243 450.391 650.44 453.2 640.779L445.093 640.499Z" stroke="#572E20" stroke-width="5"/>
<path d="M439.402 653.188C442.904 648.63 443.8 645.744 445.093 640.499L453.2 640.779C450.391 650.44 449.244 656.243 441.967 661.867L430.636 671.975L427.513 665.663L439.402 653.188Z" stroke="#572E20" stroke-width="5"/>
<path d="M335.363 981.059C347.941 982.504 354.982 982.565 367.507 980.567C377.993 974.176 383.712 970.533 387.497 961.616L370.541 920.283C338.923 884.012 320.535 866.822 287.184 838.792C262.588 822.706 249.19 816.714 225.915 810.835C210.875 809.113 203.084 810.88 189.373 814.823C186.257 827.012 185.762 833.935 189.86 846.648C217.951 881.774 235.299 900.437 279.601 925.103C295.902 949.247 307.639 961.693 335.363 981.059Z" fill="#572E20"/>
<path d="M392.3 919.95C392.706 919.29 361.616 873.789 322.295 838.255C285.735 817.511 266.537 808.141 234.075 794.549C212.56 795.583 203.507 801.267 189.373 814.823C203.084 810.88 210.875 809.113 225.915 810.835C249.19 816.714 262.588 822.706 287.184 838.792C320.535 866.822 338.923 884.012 370.541 920.283L387.497 961.616C394.475 957.957 397.424 955.109 401.111 948.709L392.3 919.95Z" fill="#F4E4C8"/>
<path d="M346.074 812.424L340.076 804.191C331.939 797.155 328.574 794.187 323.029 789.27C327.291 808.936 327.419 819.695 322.295 838.255C361.616 873.789 392.706 919.29 392.3 919.95L401.111 948.709C407.927 945.341 411.085 942.477 415.288 935.269C425.587 916.014 427.633 905.129 427.389 885.62C422.416 866.334 418.317 857.291 409.429 843.288C393.817 828.658 383.768 822.841 364.959 814.094L346.074 812.424Z" fill="#F4E4C8"/>
<path d="M225.301 770.686C210.829 783.857 202.984 793.736 189.373 814.823C203.507 801.267 212.56 795.583 234.075 794.549C266.537 808.141 285.735 817.511 322.295 838.255C327.419 819.695 327.291 808.936 323.029 789.27C303.966 772.593 292.024 766.508 270.108 757.267C246.588 755.812 238.345 760.493 225.301 770.686Z" fill="#F4E4C8"/>
<path d="M387.497 961.616C383.712 970.533 377.993 974.176 367.507 980.567C354.982 982.565 347.941 982.504 335.363 981.059C307.639 961.693 295.902 949.247 279.601 925.103C235.299 900.437 217.951 881.774 189.86 846.648C185.762 833.935 186.257 827.012 189.373 814.823C202.984 793.736 210.829 783.857 225.301 770.686C238.345 760.493 246.588 755.812 270.108 757.267C292.024 766.508 303.966 772.593 323.029 789.27C328.574 794.187 331.939 797.155 340.076 804.191L346.074 812.424L362.307 834.704M346.074 812.424L364.959 814.094C383.768 822.841 393.817 828.658 409.429 843.288C418.317 857.291 422.416 866.334 427.389 885.62C427.633 905.129 425.587 916.014 415.288 935.269C411.085 942.477 407.927 945.341 401.111 948.709M189.373 814.823C203.507 801.267 212.56 795.583 234.075 794.549C266.537 808.141 285.735 817.511 322.295 838.255M189.373 814.823C203.084 810.88 210.875 809.113 225.915 810.835C249.19 816.714 262.588 822.706 287.184 838.792C320.535 866.822 338.923 884.012 370.541 920.283L387.497 961.616M323.029 789.27C327.291 808.936 327.419 819.695 322.295 838.255M322.295 838.255C361.616 873.789 392.706 919.29 392.3 919.95L401.111 948.709M401.111 948.709C397.424 955.109 394.475 957.957 387.497 961.616" stroke="#572E20" stroke-width="5"/>
<path d="M596.135 618.645L595.488 618.687C595.481 618.731 595.475 618.775 595.468 618.819C594.656 624.367 594.751 627.616 596.364 633.641C598.817 640.375 600.898 644.36 611.712 652.942C612.091 653.242 612.518 653.489 612.968 653.666L623.751 657.932C627.02 659.225 627.969 663.399 625.58 665.979L613.281 679.26C612.894 679.679 612.437 680.028 611.932 680.292L582.681 695.606C582.359 695.775 582.02 695.908 581.669 696.003L525.482 711.228L486.333 721.827C477.558 725.143 473.748 727.851 468.264 733.22C468 733.478 467.766 733.767 467.566 734.078L442.27 773.503L406.978 838.515L413.985 844.438L435.209 806.112L455.821 769.796L476.948 738.288C477.313 737.743 477.782 737.276 478.327 736.912L486.838 731.238C487.263 730.954 487.729 730.738 488.219 730.596L536.651 716.557L591.408 701.336C591.705 701.254 591.997 701.142 592.273 701.006C603.619 695.426 609.784 691.636 620.322 684.276C628.794 677.416 633.235 673.096 640.309 664.898C640.556 664.611 640.773 664.292 640.948 663.956C646.442 653.428 648.522 647.119 649.308 635.331C649.765 622.711 649.599 615.64 648.814 603.039L639.783 605.715L638.836 639.351C638.815 640.102 638.615 640.835 638.308 641.52C637.515 643.293 637.017 645.087 636.421 647.426C635.666 650.389 632.44 651.946 629.667 650.659C617.82 645.161 611.096 640.73 605.5 631.549C605.087 630.872 604.863 630.098 604.823 629.306L604.162 616.267L596.135 618.645Z" fill="#F4E4C8"/>
<path d="M638.308 641.52C638.615 640.835 638.815 640.102 638.836 639.351L639.783 605.715L604.162 616.267L604.823 629.306C604.863 630.098 605.087 630.872 605.5 631.549C611.096 640.73 617.82 645.161 629.667 650.659C632.44 651.946 635.666 650.389 636.421 647.426C637.017 645.087 637.515 643.293 638.308 641.52Z" fill="#CB6543"/>
<path d="M414.083 844.52C414.779 845.109 415.301 845.877 415.593 846.741L425.268 875.44C426.728 879.772 432.757 880.018 434.581 875.826C454.878 829.203 467.659 799.542 499.892 750.576C500.513 749.634 501.446 748.912 502.522 748.572C509.941 746.23 516.347 744.837 531.003 742.644L622.323 716.246C637.421 710.04 643.729 705.15 651.723 694.296C660.391 680.868 664.781 671.376 671.448 651.297C671.624 650.767 671.711 650.203 671.702 649.645L670.99 603.089C670.939 599.78 667.744 597.432 664.57 598.372L648.814 603.039C649.599 615.64 649.765 622.711 649.308 635.331C648.522 647.119 646.442 653.428 640.948 663.956C640.773 664.292 640.556 664.611 640.309 664.898C633.235 673.096 628.794 677.416 620.322 684.276C609.784 691.636 603.619 695.426 592.273 701.006C591.997 701.142 591.705 701.254 591.408 701.336L536.651 716.557L488.219 730.596C487.729 730.738 487.263 730.954 486.838 731.238L478.327 736.912C477.782 737.276 477.313 737.743 476.948 738.288L455.821 769.796L435.209 806.112L413.985 844.438L414.083 844.52Z" fill="#CB6543"/>
<path d="M342.468 805.909C343.13 807.243 344.352 808.213 345.802 808.553L381.449 816.935L406.978 838.515L442.27 773.503L467.566 734.078C467.766 733.767 468 733.478 468.264 733.22C473.748 727.851 477.558 725.143 486.333 721.827L525.482 711.228L581.669 696.003C582.02 695.908 582.359 695.775 582.681 695.606L611.932 680.292C612.437 680.028 612.894 679.679 613.281 679.26L625.58 665.979C627.969 663.399 627.02 659.225 623.751 657.932L612.968 653.666C612.518 653.489 612.091 653.242 611.712 652.942C600.898 644.36 598.817 640.375 596.364 633.641C594.751 627.616 594.656 624.367 595.468 618.819L547.443 631.39L484.241 650.982C473.277 652.983 467.382 654.635 457.136 658.145C443.744 662.881 438.124 666.232 429.134 672.588L417.56 680.123C417.292 680.297 417.042 680.497 416.812 680.719L390.337 706.326C390.009 706.643 389.726 707.004 389.496 707.398L354.718 766.944C354.561 767.212 354.43 767.494 354.326 767.786L343.832 797.217C343.553 797.999 342.818 798.526 341.988 798.538C340.525 798.561 339.585 800.102 340.236 801.413L342.468 805.909Z" fill="#CB6543"/>
<path d="M413.985 844.438L381.449 816.935L345.802 808.553C344.352 808.213 343.13 807.243 342.468 805.909L340.236 801.413C339.585 800.102 340.525 798.561 341.988 798.538C342.818 798.526 343.553 797.999 343.832 797.217L354.326 767.786C354.43 767.494 354.561 767.212 354.718 766.944L389.496 707.398C389.726 707.004 390.009 706.643 390.337 706.326L416.812 680.719C417.042 680.497 417.292 680.297 417.56 680.123L429.134 672.588C438.124 666.232 443.744 662.881 457.136 658.145C467.382 654.635 473.277 652.983 484.241 650.982L547.443 631.39L595.488 618.687L596.135 618.645M413.985 844.438L406.978 838.515L381.449 816.935M547.443 631.39L595.468 618.819M595.468 618.819L596.135 618.645L604.162 616.267M639.783 605.715L638.836 639.351C638.815 640.102 638.615 640.835 638.308 641.52C637.515 643.293 637.017 645.087 636.421 647.426C635.666 650.389 632.44 651.946 629.667 650.659C617.82 645.161 611.096 640.73 605.5 631.549C605.087 630.872 604.863 630.098 604.823 629.306L604.162 616.267M639.783 605.715L604.162 616.267M413.985 844.438L414.083 844.52C414.779 845.109 415.301 845.877 415.593 846.741L425.268 875.44C426.728 879.772 432.757 880.018 434.581 875.826C454.878 829.203 467.659 799.542 499.892 750.576C500.513 749.634 501.446 748.912 502.522 748.572C509.941 746.23 516.347 744.837 531.003 742.644L622.323 716.246C637.421 710.04 643.729 705.15 651.723 694.296C660.391 680.868 664.781 671.376 671.448 651.297C671.624 650.767 671.711 650.203 671.702 649.645L670.99 603.089C670.939 599.78 667.744 597.432 664.57 598.372L648.814 603.039L639.783 605.715M648.814 603.039C649.599 615.64 649.765 622.711 649.308 635.331C648.522 647.119 646.442 653.428 640.948 663.956C640.773 664.292 640.556 664.611 640.309 664.898C633.235 673.096 628.794 677.416 620.322 684.276C609.784 691.636 603.619 695.426 592.273 701.006C591.997 701.142 591.705 701.254 591.408 701.336L536.651 716.557L488.219 730.596C487.729 730.738 487.263 730.954 486.838 731.238L478.327 736.912C477.782 737.276 477.313 737.743 476.948 738.288L455.821 769.796L435.209 806.112L413.985 844.438M406.978 838.515L442.27 773.503L467.566 734.078C467.766 733.767 468 733.478 468.264 733.22C473.748 727.851 477.558 725.143 486.333 721.827L525.482 711.228L581.669 696.003C582.02 695.908 582.359 695.775 582.681 695.606L611.932 680.292C612.437 680.028 612.894 679.679 613.281 679.26L625.58 665.979C627.969 663.399 627.02 659.225 623.751 657.932L612.968 653.666C612.518 653.489 612.091 653.242 611.712 652.942C600.898 644.36 598.817 640.375 596.364 633.641C594.751 627.616 594.656 624.367 595.468 618.819M595.488 618.687C595.481 618.731 595.475 618.775 595.468 618.819" stroke="#572E20" stroke-width="5"/>
<path d="M389.799 476.5C399.928 491.604 404.87 500.493 407.299 520C399.758 527.904 394.876 531.254 384.799 535C363.976 544.678 352.397 547.944 331.799 552.5C310.74 553.498 299.419 553.2 281.299 549C259.323 542.256 249.675 535.978 233.299 524L212.799 506L204.799 491.5L188.299 497C164.689 496.529 152.54 493.265 132.299 483.5C113.109 475.619 103.331 470.721 87.7988 461L63.7988 431L58.2988 418.5C54.2816 414.453 52.1274 411.67 48.7988 404C46.7152 398.389 46.1049 395.073 48.7988 388C51.3483 383.613 53.5168 382.205 58.2988 381L69.2988 374L73.7988 365.5C77.8013 360.481 81.1127 359.759 87.7988 360L104.799 365.5L159.299 388L159.491 388.111C173.883 396.476 182.012 401.2 200.799 397.5V388L194.799 365.5V341C197.915 332.493 202.067 329.834 212.799 328C218.165 328.841 220.862 330.09 224.799 334.5C228.236 349.868 229.466 358.507 228.799 374C241.154 390.225 245.986 400.189 253.299 418.5C255.629 430.02 256.022 436.48 253.299 448C263.807 461.91 271.203 468.531 289.299 476.5C296.914 476.048 301.184 476.137 308.799 476.5C322.235 476.396 328.957 474.546 338.799 466.5L356.299 448C371.786 455.398 379.612 460.876 389.799 476.5Z" fill="#F4E4C8"/>
<path d="M58.2988 381L69.2988 374L73.7988 365.5C77.8013 360.481 81.1127 359.759 87.7988 360L104.799 365.5L159.299 388C173.811 396.434 181.929 401.217 200.799 397.5V388L194.799 365.5V341C197.915 332.493 202.067 329.834 212.799 328C218.165 328.841 220.862 330.09 224.799 334.5C228.236 349.868 229.466 358.507 228.799 374C241.154 390.225 245.986 400.189 253.299 418.5C255.629 430.02 256.022 436.48 253.299 448C263.807 461.91 271.203 468.531 289.299 476.5C296.914 476.048 301.184 476.137 308.799 476.5C322.235 476.396 328.957 474.546 338.799 466.5L356.299 448C371.786 455.398 379.612 460.876 389.799 476.5C399.928 491.604 404.87 500.493 407.299 520C399.758 527.904 394.876 531.254 384.799 535C363.976 544.678 352.397 547.944 331.799 552.5C310.74 553.498 299.419 553.2 281.299 549C259.323 542.256 249.675 535.978 233.299 524L212.799 506L204.799 491.5M204.799 491.5L188.299 497C164.689 496.529 152.54 493.265 132.299 483.5C113.109 475.619 103.331 470.721 87.7988 461L63.7988 431L58.2988 418.5C54.2816 414.453 52.1274 411.67 48.7988 404C46.7152 398.389 46.1049 395.073 48.7988 388C51.3483 383.613 53.5168 382.205 58.2988 381M58.2988 381H69.2988L88.7988 385L141.799 411.25M63.7988 431L69.2988 418.5C71.5578 415.661 73.1424 414.302 76.7988 412.5C83.7156 408.153 87.5202 409.145 94.2988 411.25L128.799 444M228.799 483.5L204.799 491.5M212.799 444C204.408 437.577 199.701 434.858 191.299 432C177.813 427.712 170.885 429.557 159.299 438M128.799 458C127.282 442.078 128.169 433.353 135.799 418.5L141.799 411.25M147.799 404L141.799 411.25" stroke="#572E20" stroke-width="5"/>
<path d="M712.298 469C706.275 433.086 709.29 414.874 723.298 385L753.298 391C770.948 395.494 780.821 398.715 798.298 408.5C831.502 425.098 846.324 436.165 872.298 458.5C888.111 472.694 895.937 481.727 908.298 499.5C918.451 500.936 924.144 502.991 934.298 510C952.695 521.457 954.051 525.038 979.798 550C988.337 559.628 992.439 565.545 991.298 582.5C988.992 588.775 987.673 591.43 985.298 595.5C981.255 602.383 978.252 604.955 972.298 608.5C972.598 616.487 972.083 620.972 968.298 629C965.061 634.439 962.278 636.932 955.798 640.5C949.75 642.978 946.167 643.826 939.298 644C937.695 648.945 936.081 651.63 929.798 656C921.204 658.245 916.533 657.83 908.298 656C901.091 652.656 897.592 650.023 892.298 644C886.543 638.36 884.341 634.615 883.798 626L861.298 618.5C854.341 610.912 850.57 606.535 847.298 595.5C844.987 582.957 844.488 575.738 847.298 562L850.548 537.25L839.798 524.5L798.298 492.5C782.147 480.47 772.33 476.397 753.298 474.5L712.298 469Z" fill="#F4E4C8"/>
<path d="M861.298 550L850.548 537.25M850.548 537.25L839.798 524.5L798.298 492.5C782.147 480.47 772.33 476.397 753.298 474.5L712.298 469C706.275 433.086 709.29 414.874 723.298 385L753.298 391C770.948 395.494 780.821 398.715 798.298 408.5C831.502 425.098 846.324 436.165 872.298 458.5C888.111 472.694 895.937 481.727 908.298 499.5C918.451 500.936 924.144 502.991 934.298 510C952.695 521.457 954.051 525.038 979.798 550C988.337 559.628 992.439 565.545 991.298 582.5C988.992 588.775 987.673 591.43 985.298 595.5C981.255 602.383 978.252 604.955 972.298 608.5M850.548 537.25L847.298 562C844.488 575.738 844.987 582.957 847.298 595.5C850.57 606.535 854.341 610.912 861.298 618.5L883.798 626M883.798 626C884.341 634.615 886.543 638.36 892.298 644C897.592 650.023 901.091 652.656 908.298 656C916.533 657.83 921.204 658.245 929.798 656C936.081 651.63 937.695 648.945 939.298 644M883.798 626L892.298 608.5M939.298 644C946.167 643.826 949.75 642.978 955.798 640.5C962.278 636.932 965.061 634.439 968.298 629C972.083 620.972 972.598 616.487 972.298 608.5M939.298 644L942.298 610M972.298 608.5L968.298 588M904.298 626C901.366 618.349 898.788 614.496 892.298 608.5C886.277 602.945 882.586 600.668 875.298 598.5" stroke="#572E20" stroke-width="5"/>
<path d="M590.299 459H475.299L479.799 350L582.799 342.5L590.299 459Z" fill="#572E20" stroke="#F4E4C8"/>
<path d="M345.299 446.5C364.919 459.93 374.494 470.341 388.799 494.5L432.299 452.5C432.299 452.5 408.454 525.19 408.862 576L423.299 584.5C468.816 604.18 491.897 601.451 528.531 597.12L528.538 597.119L528.569 597.116L528.622 597.109C530.317 596.909 532.042 596.705 533.799 596.5C534.739 596.298 535.661 596.1 536.569 595.905L536.575 595.904C558.632 591.17 571.825 588.339 608.799 577.5C641.811 568.489 659.517 562.794 652.799 522L639.799 481.5C638.719 469.306 640.96 465.402 652.799 466.5C677.402 472.451 691.195 472.521 715.799 466.5C714.542 435.811 716.288 418.695 728.299 388.5C706.069 380.802 692.846 379.378 668.299 380.5C643.459 381.645 632.428 386.731 616.799 402C597.791 418.834 586.405 428.631 565.299 446.5C539.455 457.041 525.51 456.196 501.299 446.5C476.103 426.584 470.175 410.039 468.799 374.5L437.799 380.5C395.366 396.764 375.845 412.317 345.299 446.5Z" fill="#CB6543"/>
<path d="M409.299 596.5C501.579 630.471 558.855 635.223 679.299 596.5C679.378 551.587 677.148 526.409 668.299 481.5C696.6 482.34 710.193 482.421 728.299 481.5C728.12 436.044 732.689 412.708 748.299 374.5C687.633 363.395 653.701 361.145 593.299 363L588.299 388.5C580.687 403.504 575.703 410.6 565.299 420.5C554.124 429.439 544.906 432.206 526.299 435.5C492.346 430.61 481.099 415.043 468.799 374.5C470.175 410.039 476.103 426.584 501.299 446.5C525.51 456.196 539.455 457.041 565.299 446.5C586.405 428.631 597.791 418.834 616.799 402C632.428 386.731 643.459 381.645 668.299 380.5C692.846 379.378 706.069 380.802 728.299 388.5C716.288 418.695 714.542 435.811 715.799 466.5C691.195 472.521 677.402 472.451 652.799 466.5C640.96 465.402 638.719 469.306 639.799 481.5L652.799 522C659.517 562.794 641.811 568.489 608.799 577.5C571.825 588.339 558.632 591.17 536.575 595.904L536.569 595.905C535.661 596.1 534.739 596.298 533.799 596.5C532.042 596.705 530.317 596.909 528.622 597.109L528.569 597.116L528.538 597.119L528.531 597.12C491.897 601.451 468.816 604.18 423.299 584.5L408.862 576C408.913 582.471 409.064 589.281 409.299 596.5Z" fill="#572E20"/>
<path d="M388.799 494.5C395.009 506.796 398.099 515.034 402.799 532.5L414.599 500.5L432.299 452.5L388.799 494.5Z" fill="#572E20"/>
<path d="M388.799 494.5L432.299 452.5C432.299 452.5 408.454 525.19 408.862 576M432.299 452.5L414.599 500.5L402.799 532.5C398.099 515.034 395.009 506.796 388.799 494.5M408.862 576C408.913 582.471 409.064 589.281 409.299 596.5C501.579 630.471 558.855 635.223 679.299 596.5C679.378 551.587 677.148 526.409 668.299 481.5C696.6 482.34 710.193 482.421 728.299 481.5C728.12 436.044 732.689 412.708 748.299 374.5C687.633 363.395 653.701 361.145 593.299 363L588.299 388.5C580.687 403.504 575.703 410.6 565.299 420.5C554.124 429.439 544.906 432.206 526.299 435.5C492.346 430.61 481.099 415.043 468.799 374.5L437.799 380.5C395.366 396.764 375.845 412.317 345.299 446.5C364.919 459.93 374.494 470.341 388.799 494.5M528.538 597.119C528.548 597.118 528.558 597.117 528.569 597.116C528.587 597.114 528.604 597.111 528.622 597.109C530.317 596.909 532.042 596.705 533.799 596.5C534.739 596.298 535.661 596.1 536.569 595.905C536.571 595.905 536.573 595.904 536.575 595.904C558.632 591.17 571.825 588.339 608.799 577.5C641.811 568.489 659.517 562.794 652.799 522L639.799 481.5C638.719 469.306 640.96 465.402 652.799 466.5C677.402 472.451 691.195 472.521 715.799 466.5C714.542 435.811 716.288 418.695 728.299 388.5C706.069 380.802 692.846 379.378 668.299 380.5C643.459 381.645 632.428 386.731 616.799 402C597.791 418.834 586.405 428.631 565.299 446.5C539.455 457.041 525.51 456.196 501.299 446.5C476.103 426.584 470.175 410.039 468.799 374.5M408.862 576L423.299 584.5C468.816 604.18 491.897 601.451 528.531 597.12M536.575 595.904L536.569 595.905M528.531 597.12L528.538 597.119M528.531 597.12C528.533 597.12 528.535 597.12 528.538 597.119M528.538 597.119L528.569 597.116M528.569 597.116L528.622 597.109" stroke="#CB6543" stroke-width="5"/>
<path d="M542.299 289L510.299 298.5H482.799L486.799 304L490.799 308L500.799 310.5C506.632 309.667 518.399 308 518.799 308C519.199 308 539.299 304 549.299 302L562.799 294L566.299 287.5L562.299 281.609L542.299 289Z" fill="#F4E4C8"/>
<path d="M507.299 362.5L499.299 351.5H544.299V358.5L561.299 351.5C565.465 343.333 574.299 325.5 576.299 319.5C578.299 313.5 577.132 298.667 576.299 292L568.647 284L572.299 298L569.299 310.5L564.299 320.5C563.799 321.5 557.299 331.5 556.299 331.5C555.499 331.5 544.299 338.5 538.799 342L526.799 346L510.299 345.5C507.299 344.5 500.899 342.4 499.299 342C497.699 341.6 492.299 336.833 489.799 334.5C488.132 330.833 484.699 323.3 484.299 322.5C483.899 321.7 482.799 315.167 482.299 312V308C482.299 306.8 480.965 303.5 480.299 302L473.799 298.5H461.799V314L464.299 331.5L475.299 348.5L489.799 360.5L507.299 362.5Z" fill="#F4E4C8"/>
<path fill-rule="evenodd" clip-rule="evenodd" d="M482.799 298.5H478.299H473.799L480.299 302C480.965 303.5 482.299 306.8 482.299 308V312C482.799 315.167 483.899 321.7 484.299 322.5C484.699 323.3 488.132 330.833 489.799 334.5C492.299 336.833 497.699 341.6 499.299 342C500.899 342.4 507.299 344.5 510.299 345.5L526.799 346L538.799 342C544.299 338.5 555.499 331.5 556.299 331.5C557.299 331.5 563.799 321.5 564.299 320.5L569.299 310.5L572.299 298L568.647 284L565.299 280.5L562.299 281.609L566.299 287.5L562.799 294L549.299 302C539.299 304 519.199 308 518.799 308C518.399 308 506.632 309.667 500.799 310.5L490.799 308L486.799 304L482.799 298.5ZM523.799 322.5L511.799 334.5V335.5L520.799 337.5L537.799 334.5L549.299 328L555.299 320.5L556.299 314L542.299 320.5L523.799 322.5Z" fill="#572E20"/>
<path d="M511.799 334.5L523.799 322.5L542.299 320.5L556.299 314L555.299 320.5L549.299 328L537.799 334.5L520.799 337.5L511.799 335.5V334.5Z" fill="#CB6543"/>
<path d="M443.299 314V298.5L448.799 287.5L459.299 278.5L470.799 275.5H485.799H499.299L510.299 271L513.799 275.5L538.299 269L549.799 264C554.465 262.167 564.099 258.7 565.299 259.5C566.499 260.3 574.132 261.833 577.799 262.5L588.299 269L591.799 277.5L593.799 287.5V298.5L626.799 273L637.799 253L644.299 229L640.299 211L626.799 186L623.299 178V164.5V150V131.5L619.799 99.5L604.299 82L552.799 93.5L496.799 95.5L456.799 82L433.799 103.5L426.799 134.5L414.799 150L411.799 172L408.299 196V211L411.799 229L408.299 244.5C408.535 252.979 408.521 257.288 408.299 264C406.708 270.445 406.807 274.055 408.299 280.5L414.799 294L428.799 308.5L443.299 314Z" fill="#F4E4C8"/>
<path d="M397.299 280.5V259.5L398.873 249.377L397.799 246L396.299 237L391.299 227V223.5V222L396.299 223.5L399.799 229L400.799 233V215.5C395.527 212.579 392.571 211.969 387.299 215.5L383.299 222L378.799 233V244.5C377.222 250.358 376.799 253.5 378.799 259.5C380.799 265.5 384.18 265.154 387.299 269L393.799 278.5L397.299 280.5Z" fill="#F4E4C8"/>
<path fill-rule="evenodd" clip-rule="evenodd" d="M662.799 284H681.799L700.299 277.5C706.444 272.362 709.31 268.452 713.299 259.5L716.799 242C717.146 234.283 716.391 229.888 713.299 222C711.897 216.742 709.55 214.444 703.799 211C700.246 207.119 696.318 207.25 689.299 207.5C681.575 209.668 679.21 211.594 676.299 215.5C669.537 222.533 667.743 226.328 665.799 233L662.799 250.5C658.58 266.813 657.577 274.915 662.799 284ZM689.299 265.5C687.386 269.445 685.634 270.978 681.799 273C677.772 275.887 675.684 275.954 672.299 273L669.799 265.5C669.642 259.116 670.405 255.785 672.299 250L676.299 242L685.299 226.5C688.191 223.539 690.401 222.055 696.299 220C699.255 219.494 700.902 219.677 703.799 222C706.657 225.914 707.787 228.273 708.299 233C707.961 237.755 707.158 240.332 702.799 244.5L694.799 250.5C693.982 256.442 692.992 259.741 689.299 265.5Z" fill="#F4E4C8"/>
<path d="M681.799 273C685.634 270.978 687.386 269.445 689.299 265.5C692.992 259.741 693.982 256.442 694.799 250.5L702.799 244.5C707.158 240.332 707.961 237.755 708.299 233C707.787 228.273 706.657 225.914 703.799 222C700.902 219.677 699.255 219.494 696.299 220C690.401 222.055 688.191 223.539 685.299 226.5L676.299 242L672.299 250C670.405 255.785 669.642 259.116 669.799 265.5L672.299 273C675.684 275.954 677.772 275.887 681.799 273Z" fill="#572E20"/>
<path fill-rule="evenodd" clip-rule="evenodd" d="M526.799 414.5L561.299 408L617.299 378.5L649.299 336L659.799 296H679.299L702.299 284L715.299 265.5L721.299 233L715.299 211L694.299 199V167.5L683.299 111L659.799 76L623.299 56L584.799 46L535.299 43L496.799 46L461.799 58L437.799 73.5L426.799 82L414.799 93.5L405.299 115L400.799 155.5L397.299 191V203L383.299 211C377.983 214.724 375.571 217.116 372.299 222L368.799 242C368.408 251.898 368.9 257.155 372.299 265.5L387.299 284L392.299 287.5V308.5L405.299 346L424.799 372.5L454.799 397L492.299 414.5H526.799ZM499.299 351.5L507.299 362.5L489.799 360.5L475.299 348.5L464.299 331.5L461.799 314V298.5H473.799H478.299H482.799H510.299L542.299 289L562.299 281.609L565.299 280.5L568.647 284L576.299 292C577.132 298.667 578.299 313.5 576.299 319.5C574.299 325.5 565.465 343.333 561.299 351.5L544.299 358.5V351.5H499.299ZM681.799 284H662.799C657.577 274.915 658.58 266.813 662.799 250.5L665.799 233C667.743 226.328 669.537 222.533 676.299 215.5C679.21 211.594 681.575 209.668 689.299 207.5C696.318 207.25 700.246 207.119 703.799 211C709.55 214.444 711.897 216.742 713.299 222C716.391 229.888 717.146 234.283 716.799 242L713.299 259.5C709.31 268.452 706.444 272.362 700.299 277.5L681.799 284ZM397.299 259.5V280.5L393.799 278.5L387.299 269C384.18 265.154 380.799 265.5 378.799 259.5C376.799 253.5 377.222 250.358 378.799 244.5V233L383.299 222L387.299 215.5C392.571 211.969 395.527 212.579 400.799 215.5V233V237L398.873 249.377L397.299 259.5ZM443.299 298.5V314L428.799 308.5L414.799 294L408.299 280.5C406.807 274.055 406.708 270.445 408.299 264C408.521 257.288 408.535 252.979 408.299 244.5L411.799 229L408.299 211V196L411.799 172L414.799 150L426.799 134.5L433.799 103.5L456.799 82L496.799 95.5L552.799 93.5L604.299 82L619.799 99.5L623.299 131.5V150V164.5V178L626.799 186L640.299 211L644.299 229L637.799 253L626.799 273L593.799 298.5V287.5L591.799 277.5L588.299 269L577.799 262.5C574.132 261.833 566.499 260.3 565.299 259.5C564.099 258.7 554.465 262.167 549.799 264L538.299 269L513.799 275.5L510.299 271L499.299 275.5H485.799H470.799L459.299 278.5L448.799 287.5L443.299 298.5Z" fill="#572E20"/>
<path d="M401.299 257L398.873 249.377M400.799 233V237L398.873 249.377M400.799 233V215.5C395.527 212.579 392.571 211.969 387.299 215.5L383.299 222L378.799 233V244.5C377.222 250.358 376.799 253.5 378.799 259.5C380.799 265.5 384.18 265.154 387.299 269L393.799 278.5L397.299 280.5V259.5L398.873 249.377M400.799 233L399.799 229L396.299 223.5L391.299 222V223.5V227L396.299 237L397.799 246L398.873 249.377M482.799 298.5H510.299L542.299 289L562.299 281.609M482.799 298.5H478.299H473.799M482.799 298.5L486.799 304L490.799 308L500.799 310.5C506.632 309.667 518.399 308 518.799 308C519.199 308 539.299 304 549.299 302L562.799 294L566.299 287.5L562.299 281.609M562.299 281.609L565.299 280.5L568.647 284M568.647 284L576.299 292C577.132 298.667 578.299 313.5 576.299 319.5C574.299 325.5 565.465 343.333 561.299 351.5L544.299 358.5V351.5H499.299L507.299 362.5L489.799 360.5L475.299 348.5L464.299 331.5L461.799 314V298.5H473.799M564.299 320.5C564.699 319.7 567.799 313.5 569.299 310.5L572.299 298L568.647 284M569.299 310.5L564.299 320.5M482.299 308C482.299 309.2 482.299 311.167 482.299 312C482.799 315.167 483.899 321.7 484.299 322.5C484.699 323.3 488.132 330.833 489.799 334.5C492.299 336.833 497.699 341.6 499.299 342C500.899 342.4 507.299 344.5 510.299 345.5L526.799 346L538.799 342C544.299 338.5 555.499 331.5 556.299 331.5C557.299 331.5 563.799 321.5 564.299 320.5M482.299 312V308M482.299 308C482.299 306.8 480.965 303.5 480.299 302L473.799 298.5M526.799 414.5L561.299 408L617.299 378.5L649.299 336L659.799 296H679.299L702.299 284L715.299 265.5L721.299 233L715.299 211L694.299 199V167.5L683.299 111L659.799 76L623.299 56L584.799 46L535.299 43L496.799 46L461.799 58L437.799 73.5L426.799 82L414.799 93.5L405.299 115L400.799 155.5L397.299 191V203L383.299 211C377.983 214.724 375.571 217.116 372.299 222L368.799 242C368.408 251.898 368.9 257.155 372.299 265.5L387.299 284L392.299 287.5V308.5L405.299 346L424.799 372.5L454.799 397L492.299 414.5H526.799ZM662.799 284H681.799L700.299 277.5C706.444 272.362 709.31 268.452 713.299 259.5L716.799 242C717.146 234.283 716.391 229.888 713.299 222C711.897 216.742 709.55 214.444 703.799 211C700.246 207.119 696.318 207.25 689.299 207.5C681.575 209.668 679.21 211.594 676.299 215.5C669.537 222.533 667.743 226.328 665.799 233L662.799 250.5C658.58 266.813 657.577 274.915 662.799 284ZM681.799 273C685.634 270.978 687.386 269.445 689.299 265.5C692.992 259.741 693.982 256.442 694.799 250.5L702.799 244.5C707.158 240.332 707.961 237.755 708.299 233C707.787 228.273 706.657 225.914 703.799 222C700.902 219.677 699.255 219.494 696.299 220C690.401 222.055 688.191 223.539 685.299 226.5L676.299 242L672.299 250C670.405 255.785 669.642 259.116 669.799 265.5L672.299 273C675.684 275.954 677.772 275.887 681.799 273ZM443.299 314V298.5L448.799 287.5L459.299 278.5L470.799 275.5H485.799H499.299L510.299 271L513.799 275.5L538.299 269L549.799 264C554.465 262.167 564.099 258.7 565.299 259.5C566.499 260.3 574.132 261.833 577.799 262.5L588.299 269L591.799 277.5L593.799 287.5V298.5L626.799 273L637.799 253L644.299 229L640.299 211L626.799 186L623.299 178V164.5V150V131.5L619.799 99.5L604.299 82L552.799 93.5L496.799 95.5L456.799 82L433.799 103.5L426.799 134.5L414.799 150L411.799 172L408.299 196V211L411.799 229L408.299 244.5C408.535 252.979 408.521 257.288 408.299 264C406.708 270.445 406.807 274.055 408.299 280.5L414.799 294L428.799 308.5L443.299 314ZM511.799 334.5L523.799 322.5L542.299 320.5L556.299 314L555.299 320.5L549.299 328L537.799 334.5L520.799 337.5L511.799 335.5V334.5Z" stroke="#CB6543" stroke-width="5"/>
<path d="M452.799 165.5C443.364 169.812 438.39 172.496 429.142 176.167C428.042 170.083 428.377 166.406 431.799 160C437.754 155.376 441.264 153.265 447.799 150.5C450.94 147.663 453.725 146.151 459.299 143.5C466.931 142.262 471.264 141.941 479.299 143.5C483.942 145.572 485.59 147.15 487.299 150.5C486.331 156.656 483.98 158.056 479.299 160L452.799 165.5Z" fill="#572E20"/>
<path d="M570.799 157C560.642 156.287 554.949 156.708 544.799 160C541.21 157.309 539.979 155.316 539.799 150.5C540.154 147.705 541.214 146.173 544.799 143.5C547.745 142.187 549.57 141.44 554.799 140C560.841 138.397 564.309 137.745 570.799 137.5C577.548 138.923 580.787 140.283 585.799 143.5C589.952 146.478 592.262 148.218 595.799 153.5C598.095 158.187 598.165 160.813 595.799 165.5C584.485 163.032 579.065 161.142 570.799 157Z" fill="#572E20"/>
<path d="M428.299 176.5C438.096 172.656 443.081 169.941 452.799 165.5L479.299 160C483.98 158.056 486.331 156.656 487.299 150.5C485.59 147.15 483.942 145.572 479.299 143.5C471.264 141.941 466.931 142.262 459.299 143.5C453.725 146.151 450.94 147.663 447.799 150.5C441.264 153.265 437.754 155.376 431.799 160C428.224 166.693 428.019 170.408 429.299 177M544.799 160C554.949 156.708 560.642 156.287 570.799 157C579.065 161.142 584.485 163.032 595.799 165.5C598.165 160.813 598.095 158.187 595.799 153.5C592.262 148.218 589.952 146.478 585.799 143.5C580.787 140.283 577.548 138.923 570.799 137.5C564.309 137.745 560.841 138.397 554.799 140C549.57 141.44 547.745 142.187 544.799 143.5C541.214 146.173 540.154 147.705 539.799 150.5C539.979 155.316 541.21 157.309 544.799 160Z" stroke="#CB6543" stroke-width="5"/>
<path fill-rule="evenodd" clip-rule="evenodd" d="M572.799 245.5L545.799 253.5C540 241.225 537.559 234.258 536.299 221.5C534.781 211.542 535.011 205.958 536.299 196C538.898 184.632 541.769 179.458 550.299 173C556.945 169.78 564.799 169 568.299 168.5C571.799 168 574.299 168 577.799 168.5C581.299 169 586.299 175 586.299 175C587.776 176.832 588.568 177.899 589.799 180C592.306 183.625 593.428 185.701 594.799 189.5L596.799 197.5C597.399 203.944 597.437 207.556 596.799 214L594.799 224.5L591.299 242.341L572.799 245.5ZM558.299 224.5L562.299 242C561.342 248.242 558.938 249.424 551.799 248L548.799 242.341C545.575 235.507 544.539 231.594 543.799 224.5V210.5C543.557 203.711 544.056 199.999 545.799 193.5L548.799 186.5C551.753 182.276 553.855 180.447 558.299 178L565.299 175L577.799 176.5L580.799 182.5H571.799C563.119 189.042 560.145 192.322 558.299 197.5C559.962 203.752 561.575 205.889 565.299 208L571.799 210.5C572.742 212.31 572.997 213.367 571.799 215.5C561.022 220.283 557.672 222.344 558.299 224.5Z" fill="#572E20"/>
<path fill-rule="evenodd" clip-rule="evenodd" d="M442.799 242.5L462.299 246L478.799 248.5L484.799 229C487.488 216.324 488 209.209 486.299 196.5C484.46 192.132 476.467 175.821 473.299 173.5C464.279 170.413 459.361 170.51 450.799 173.5C444.449 176.445 441.318 178.849 436.799 185C432.953 192.719 431.657 196.987 430.799 204.5C430.43 211.92 430.277 216.08 430.799 223.5L433.799 242.5H442.799ZM449.799 223.5C448.271 228.958 447.619 232.071 449.799 238.5H438.299L436.799 226.5L435.299 211C435.169 205.955 435.591 203.104 436.799 198C438.336 191.514 440.452 188.32 445.299 183C450.029 179.825 453.379 178.489 460.799 177C465.29 176.984 467.714 177.454 471.799 179.5L470.799 185C466.632 186.667 458.098 189.956 457.299 190C455.061 190.123 452.465 198.157 453.299 202L464.799 216L449.799 223.5Z" fill="#572E20"/>
<path d="M449.799 238.5C447.619 232.071 448.271 228.958 449.799 223.5L464.799 216L453.299 202C452.465 198.157 455.061 190.123 457.299 190C458.098 189.956 466.632 186.667 470.799 185L471.799 179.5C467.714 177.454 465.29 176.984 460.799 177C453.379 178.489 450.029 179.825 445.299 183C440.452 188.32 438.336 191.514 436.799 198C435.591 203.104 435.169 205.955 435.299 211L436.799 226.5L438.299 238.5H449.799Z" fill="#F4E4C8"/>
<path d="M562.299 242L558.299 224.5C557.672 222.344 561.022 220.283 571.799 215.5C572.997 213.367 572.742 212.31 571.799 210.5L565.299 208C561.575 205.889 559.962 203.752 558.299 197.5C560.145 192.322 563.119 189.042 571.799 182.5H580.799L577.799 176.5L565.299 175L558.299 178C553.855 180.447 551.753 182.276 548.799 186.5L545.799 193.5C544.056 199.999 543.557 203.711 543.799 210.5V224.5C544.539 231.594 545.575 235.507 548.799 242.341L551.799 248C558.938 249.424 561.342 248.242 562.299 242Z" fill="#F4E4C8"/>
<path d="M604.799 246L592.299 242.5L591.299 242.341M591.299 242.341L572.799 245.5L545.799 253.5C540 241.225 537.559 234.258 536.299 221.5C534.781 211.542 535.011 205.958 536.299 196C538.898 184.632 541.769 179.458 550.299 173C556.945 169.78 564.799 169 568.299 168.5C571.799 168 574.299 168 577.799 168.5C581.299 169 586.299 175 586.299 175C587.776 176.832 588.568 177.899 589.799 180C592.306 183.625 593.428 185.701 594.799 189.5L596.799 197.5C597.399 203.944 597.437 207.556 596.799 214L594.799 224.5L591.299 242.341ZM450.799 173.5C457.465 173.5 471.685 172.318 473.299 173.5C476.467 175.821 484.46 192.132 486.299 196.5C488 209.209 487.488 216.324 484.799 229L478.799 248.5L462.299 246L442.799 242.5H433.799L432.299 242.5M433.799 242.5L430.799 223.5C430.277 216.08 430.43 211.92 430.799 204.5C431.657 196.987 432.953 192.719 436.799 185C441.318 178.849 444.449 176.445 450.799 173.5C459.361 170.51 464.279 170.413 473.299 173.5M562.299 242L558.299 224.5C557.672 222.344 561.022 220.283 571.799 215.5C572.997 213.367 572.742 212.31 571.799 210.5L565.299 208C561.575 205.889 559.962 203.752 558.299 197.5C560.145 192.322 563.119 189.042 571.799 182.5H580.799L577.799 176.5L565.299 175L558.299 178C553.855 180.447 551.753 182.276 548.799 186.5L545.799 193.5C544.056 199.999 543.557 203.711 543.799 210.5V224.5C544.539 231.594 545.575 235.507 548.799 242.341L551.799 248C558.938 249.424 561.342 248.242 562.299 242ZM449.799 238.5C447.619 232.071 448.271 228.958 449.799 223.5L464.799 216L453.299 202C452.465 198.157 455.061 190.123 457.299 190C458.098 189.956 466.632 186.667 470.799 185L471.799 179.5C467.714 177.454 465.29 176.984 460.799 177C453.379 178.489 450.029 179.825 445.299 183C440.452 188.32 438.336 191.514 436.799 198C435.591 203.104 435.169 205.955 435.299 211L436.799 226.5L438.299 238.5H449.799Z" stroke="#CB6543" stroke-width="5"/>
<path d="M484.299 257L493.799 270.5L506.799 276L525.299 269L528.299 262L525.299 251.5L515.799 257L496.299 260.5L484.299 253.5L483.049 250.75L484.299 257Z" fill="#572E20"/>
<path d="M515.799 230.5H500.799L487.799 235L481.799 244.5L483.049 250.75M483.049 250.75L484.299 257L493.799 270.5L506.799 276L525.299 269L528.299 262L525.299 251.5L515.799 257L496.299 260.5L484.299 253.5L483.049 250.75Z" stroke="#CB6543" stroke-width="5"/>
<g id="globe">
  <!-- Globe fill background -->
  <path d="M137 136.5C160.206 136.5 182.463 145.718 198.872 162.128C215.282 178.537 224.5 200.794 224.5 224C224.5 247.206 215.282 269.463 198.872 285.872C182.463 302.282 160.206 311.5 137 311.5C113.794 311.5 91.5374 302.282 75.1279 285.872C58.7185 269.463 49.5 247.206 49.5 224C49.5 200.794 58.7185 178.537 75.1279 162.128C91.5374 145.718 113.794 136.5 137 136.5Z" fill="#CB6543"/>
  <!-- Interior lines clipped to globe shape -->
  <g clip-path="url(#globe-clip)">
    <line x1="0" y1="194" x2="300" y2="194" stroke="#F4E4C8" stroke-width="5" stroke-linecap="round"/>
    <line x1="0" y1="254" x2="300" y2="254" stroke="#F4E4C8" stroke-width="5" stroke-linecap="round"/>
    <circle class="globe-m"         cx="137" cy="224" r="87.5" fill="none" stroke="#F4E4C8" stroke-width="5"/>
    <circle class="globe-m globe-m1" cx="137" cy="224" r="87.5" fill="none" stroke="#F4E4C8" stroke-width="5"/>
    <circle class="globe-m globe-m2" cx="137" cy="224" r="87.5" fill="none" stroke="#F4E4C8" stroke-width="5"/>
  </g>
  <!-- Globe border drawn on top so animation doesn't bleed past edge -->
  <path d="M73.3604 287.64C56.4821 270.761 47 247.869 47 224C47 200.131 56.4821 177.239 73.3604 160.36C90.2387 143.482 113.131 134 137 134C160.869 134 183.761 143.482 200.64 160.36C217.518 177.239 227 200.131 227 224C227 247.869 217.518 270.761 200.64 287.64C183.761 304.518 160.869 314 137 314C113.131 314 90.2387 304.518 73.3604 287.64Z" stroke="#F4E4C8" stroke-width="5" stroke-linejoin="round"/>
</g>
</svg>
